<?xml version="1.0" standalone="no"?>
<!DOCTYPE svg PUBLIC "-//W3C//DTD SVG 20010904//EN"
 "http://www.w3.org/TR/2001/REC-SVG-20010904/DTD/svg10.dtd">
<svg version="1.0" xmlns="http://www.w3.org/2000/svg"
 width="1280.000000pt" height="1280.000000pt" viewBox="0 0 1280.000000 1280.000000"
 preserveAspectRatio="xMidYMid meet">
<metadata>
Created by potrace 1.14, written by Peter Selinger 2001-2017
</metadata>
<g transform="translate(0.000000,1280.000000) scale(0.100000,-0.100000)"
fill="#000000" stroke="none">
<path d="M6118 12794 c-2 -1 -52 -5 -113 -8 -171 -10 -219 -15 -350 -31 -16
-2 -73 -9 -125 -16 -52 -6 -104 -13 -115 -16 -11 -2 -36 -6 -55 -9 -19 -2 -42
-7 -50 -9 -8 -3 -33 -7 -55 -10 -60 -9 -107 -19 -204 -41 -36 -9 -79 -18 -96
-21 -16 -2 -55 -11 -85 -19 -30 -9 -71 -19 -90 -24 -204 -49 -689 -213 -855
-290 -11 -5 -81 -36 -155 -69 -209 -93 -549 -269 -580 -301 -3 -3 -11 -6 -18
-8 -17 -3 -146 -84 -150 -94 -2 -4 -8 -8 -14 -8 -22 0 -468 -306 -468 -322 0
-4 -7 -8 -15 -8 -7 0 -18 -6 -22 -13 -4 -6 -33 -31 -63 -53 -30 -23 -66 -51
-80 -63 -14 -11 -40 -33 -58 -48 -18 -16 -44 -37 -56 -48 -13 -11 -51 -45 -86
-75 -139 -121 -290 -267 -440 -427 -69 -73 -112 -122 -216 -243 -22 -25 -49
-57 -62 -70 -12 -13 -22 -27 -22 -31 0 -4 -6 -14 -13 -21 -7 -7 -28 -33 -47
-58 -19 -25 -37 -47 -40 -50 -8 -8 -84 -111 -121 -165 -19 -27 -47 -68 -64
-91 -34 -47 -39 -54 -100 -147 -25 -38 -45 -73 -45 -78 0 -5 -3 -9 -7 -9 -5 0
-13 -10 -19 -23 -6 -12 -37 -65 -69 -117 -32 -52 -60 -102 -63 -110 -3 -8 -20
-37 -37 -65 -52 -83 -213 -417 -293 -605 -69 -163 -214 -563 -227 -625 -1 -5
-8 -30 -15 -55 -7 -25 -14 -49 -15 -55 -2 -5 -13 -46 -25 -90 -24 -84 -56
-216 -65 -263 -3 -15 -7 -36 -10 -47 -19 -80 -24 -105 -29 -139 -4 -21 -8 -48
-11 -60 -2 -12 -7 -37 -10 -56 -2 -19 -7 -46 -10 -60 -3 -14 -8 -43 -11 -65
-2 -22 -7 -51 -9 -65 -2 -14 -7 -50 -10 -80 -4 -30 -9 -68 -11 -85 -13 -108
-19 -170 -30 -340 -10 -136 -10 -680 -1 -795 16 -189 33 -363 41 -419 3 -20 8
-56 11 -81 3 -25 10 -70 15 -100 5 -30 12 -71 15 -90 3 -19 8 -42 10 -50 2 -8
6 -31 9 -50 8 -52 13 -74 42 -200 14 -63 28 -126 30 -140 3 -14 9 -36 13 -50
5 -14 24 -79 41 -145 49 -186 166 -526 238 -695 8 -19 16 -40 17 -45 2 -6 19
-45 39 -87 20 -42 36 -79 36 -83 0 -13 206 -418 257 -505 27 -47 52 -92 56
-100 28 -59 272 -431 311 -472 9 -10 16 -21 16 -24 0 -6 139 -194 150 -204 3
-3 27 -32 52 -65 25 -33 56 -71 68 -85 54 -61 121 -139 156 -180 107 -125 379
-394 530 -525 38 -33 74 -64 80 -70 44 -40 134 -115 168 -140 37 -27 122 -93
167 -129 9 -7 58 -42 110 -77 52 -35 96 -66 99 -69 14 -14 289 -190 297 -190
4 0 14 -6 22 -14 9 -7 41 -27 71 -44 30 -16 80 -44 110 -61 484 -276 1106
-513 1700 -650 145 -33 181 -40 305 -61 66 -11 131 -22 145 -25 14 -3 45 -7
70 -10 25 -3 78 -10 118 -15 40 -6 103 -12 140 -16 37 -3 85 -7 107 -10 219
-23 854 -23 1050 1 17 2 66 6 110 10 44 3 87 8 95 10 8 2 42 7 75 10 182 18
590 96 810 155 140 37 261 72 284 81 13 5 73 26 135 45 351 113 807 319 1156
521 203 117 400 243 400 254 0 5 4 8 8 7 9 -3 172 109 252 171 25 20 49 39 55
44 25 18 182 144 203 162 13 11 32 27 41 35 210 177 584 548 686 681 11 14 44
52 72 85 186 210 478 631 653 939 75 133 230 434 264 515 11 25 32 74 49 110
16 36 37 85 47 110 9 25 21 54 25 65 5 11 9 22 10 25 0 3 20 55 44 115 24 61
44 115 45 120 1 6 26 84 54 175 68 213 66 207 97 330 46 186 53 214 81 345 2
11 7 36 10 55 3 19 7 46 10 60 6 31 8 41 27 160 8 52 18 120 22 151 3 31 7 65
9 75 2 11 7 51 11 89 3 39 8 89 10 112 15 146 19 273 19 543 0 349 -8 505 -39
760 -11 94 -34 254 -40 280 -3 14 -8 43 -10 65 -3 22 -8 47 -11 56 -2 10 -7
30 -9 45 -7 53 -67 323 -89 404 -8 30 -26 98 -41 150 -28 104 -129 417 -151
465 -7 17 -38 94 -68 171 -64 163 -94 231 -179 404 -34 69 -60 128 -59 133 1
4 -3 7 -8 7 -6 0 -10 6 -10 13 0 7 -27 59 -60 116 -33 57 -60 105 -60 107 0 2
-72 124 -125 212 -60 99 -187 287 -197 290 -4 2 -8 8 -8 13 0 6 -13 27 -28 47
-16 20 -55 73 -87 117 -32 44 -63 85 -69 90 -6 6 -29 35 -52 65 -23 30 -53 69
-67 85 -14 17 -36 41 -47 55 -191 224 -470 509 -634 645 -26 22 -60 52 -75 66
-14 14 -89 76 -166 137 -77 62 -147 118 -155 126 -8 7 -44 33 -80 57 -36 24
-69 47 -75 52 -127 105 -582 376 -855 510 -142 69 -421 196 -445 202 -11 2
-40 13 -70 25 -142 58 -367 136 -525 181 -94 26 -325 87 -359 94 -14 2 -66 14
-116 25 -49 10 -103 22 -120 24 -16 3 -52 10 -80 15 -27 6 -66 13 -85 16 -19
2 -48 7 -65 10 -62 10 -92 15 -145 20 -30 3 -73 8 -95 11 -54 8 -84 11 -190
19 -49 3 -112 9 -140 12 -49 5 -682 12 -687 7z"/>
</g>
</svg>
